<svg width="158" height="116" viewBox="0 0 158 116" fill="none" xmlns="http://www.w3.org/2000/svg">
<path fill-rule="evenodd" clip-rule="evenodd" d="M114.247 101.732C114.251 101.732 114.255 101.73 114.259 101.73C114.257 101.73 114.261 101.729 114.259 101.73C114.257 101.73 114.249 101.732 114.247 101.732ZM114.259 101.73L114.542 101.664C114.448 101.689 114.353 101.711 114.259 101.73ZM126.681 103.643C126.63 103.731 126.576 103.817 126.521 103.899L126.681 103.643ZM136.732 96.7529C136.732 96.7489 136.73 96.7449 136.73 96.7408C136.729 96.7388 136.73 96.7428 136.73 96.7408C136.73 96.7428 136.732 96.7509 136.732 96.7529ZM136.73 96.7408L136.664 96.458C136.689 96.5526 136.711 96.6468 136.73 96.7408Z" fill="white"/>
<path fill-rule="evenodd" clip-rule="evenodd" d="M107.357 84.3189C107.269 84.37 107.183 84.4237 107.101 84.4795L107.357 84.3189ZM136.588 79.8805L136.586 79.8906C136.587 79.8872 136.588 79.8839 136.588 79.8805ZM136.73 96.7408L136.664 96.458C136.689 96.5526 136.711 96.6468 136.73 96.7408ZM126.521 103.899L126.681 103.643C126.63 103.731 126.576 103.817 126.521 103.899ZM114.259 101.73L114.542 101.664C114.448 101.689 114.353 101.711 114.259 101.73Z" fill="white"/>
<path fill-rule="evenodd" clip-rule="evenodd" d="M114.88 74.4118L114.542 74.3361C114.655 74.3661 114.767 74.3913 114.88 74.4118ZM119.319 72.3574L119.127 72.6592C119.194 72.5623 119.259 72.461 119.319 72.3574ZM136.588 79.8805L136.664 79.542C136.634 79.6545 136.609 79.7674 136.588 79.8805ZM136.588 79.8805L136.586 79.8906C136.587 79.8872 136.588 79.8839 136.588 79.8805ZM114.259 101.73L114.542 101.664C114.448 101.689 114.353 101.711 114.259 101.73ZM126.681 103.643C126.63 103.731 126.576 103.817 126.521 103.899L126.681 103.643ZM136.73 96.7408L136.664 96.458C136.689 96.5526 136.711 96.6468 136.73 96.7408ZM138.643 91.6811L138.341 91.873C138.438 91.8055 138.539 91.7411 138.643 91.6811Z" fill="white"/>
<path fill-rule="evenodd" clip-rule="evenodd" d="M136.566 81.2661C136.565 81.2569 136.563 81.242 136.562 81.2329C136.563 81.2439 136.565 81.255 136.566 81.2661ZM117.122 74.2123C117.106 74.2183 117.107 74.2182 117.122 74.2123V74.2123Z" fill="white"/>
<path fill-rule="evenodd" clip-rule="evenodd" d="M136.566 81.2661L136.562 81.2329C136.561 81.2293 136.561 81.2258 136.56 81.2223C136.56 81.2193 136.557 81.2014 136.557 81.1984C136.555 81.1873 136.554 81.1731 136.552 81.162C136.554 81.1741 136.555 81.1863 136.557 81.1984C136.557 81.2014 136.56 81.2193 136.56 81.2223C136.561 81.2258 136.561 81.2293 136.562 81.2329C136.563 81.242 136.565 81.2569 136.566 81.2661Z" fill="white"/>
<path fill-rule="evenodd" clip-rule="evenodd" d="M52 22H106V0H120C127.732 0 134 6.26801 134 14V22H138C149.046 22 158 30.9543 158 42V96C158 107.046 149.046 116 138 116H20C8.9543 116 0 107.046 0 96V42C0 30.9543 8.95431 22 20 22H24V0H38C45.732 0 52 6.26801 52 14V22ZM114.247 101.732L114.259 101.73C114.353 101.711 114.448 101.689 114.542 101.664C116.398 101.169 118.356 101.98 119.319 103.643C119.774 104.428 120.417 104.995 121.144 105.345C121.71 105.617 122.326 105.756 122.945 105.764C123.092 105.766 123.239 105.761 123.385 105.748C124.141 105.68 124.881 105.414 125.514 104.95C125.544 104.928 125.574 104.906 125.603 104.883C125.853 104.689 126.086 104.463 126.295 104.205C126.326 104.166 126.357 104.127 126.387 104.087C126.433 104.026 126.477 103.964 126.521 103.899C126.576 103.817 126.63 103.731 126.681 103.643C127.644 101.98 129.602 101.169 131.458 101.664C133.062 102.092 134.597 101.557 135.609 100.514C135.906 100.207 136.158 99.8564 136.354 99.4734C136.383 99.4162 136.411 99.3583 136.437 99.2996C136.527 99.102 136.602 98.8967 136.661 98.685C136.828 98.0811 136.864 97.4257 136.732 96.7529L136.73 96.7408C136.711 96.6468 136.689 96.5526 136.664 96.458C136.2 94.7177 136.884 92.8882 138.341 91.873L138.643 91.6811C140.411 90.6571 141.074 88.6772 140.632 86.9363C140.389 85.9789 139.811 85.0936 138.899 84.4795L138.643 84.3189C138.015 83.9553 137.508 83.4498 137.148 82.8615C136.93 82.5067 136.766 82.1217 136.66 81.7196C136.625 81.5884 136.597 81.4553 136.575 81.3209L136.572 81.3038L136.566 81.2661L136.562 81.2329L136.56 81.2223L136.557 81.1984L136.552 81.162L136.55 81.1453C136.545 81.1007 136.54 81.0561 136.536 81.0113C136.503 80.6424 136.519 80.2658 136.586 79.8906L136.588 79.8805L136.664 79.542C137.506 76.3826 134.617 73.4938 131.458 74.3361C129.602 74.831 127.644 74.0201 126.681 72.3574C125.043 69.5278 120.957 69.5278 119.319 72.3574L119.127 72.6592L119.114 72.6773C119.05 72.7679 118.983 72.8556 118.913 72.9401C118.585 73.3366 118.192 73.6644 117.757 73.9143C117.648 73.977 117.536 74.0349 117.422 74.0877C117.324 74.133 117.224 74.1746 117.122 74.2123C116.419 74.4745 115.648 74.551 114.88 74.4118L114.542 74.3361C111.383 73.4938 108.494 76.3826 109.336 79.542C109.781 81.2121 109.17 82.9641 107.832 84C107.683 84.1156 107.524 84.2222 107.357 84.3189C107.269 84.37 107.183 84.4237 107.101 84.4795C106.498 84.8851 106.042 85.409 105.731 85.9939C105.71 86.0329 105.69 86.0722 105.671 86.1117C104.972 87.5343 105.114 89.2862 106.096 90.5754C106.205 90.7186 106.324 90.856 106.454 90.9867C106.713 91.2483 107.015 91.4827 107.357 91.6811C107.935 92.0158 108.411 92.4708 108.764 93C109.426 93.9929 109.659 95.247 109.336 96.458C108.993 97.7436 109.268 98.9843 109.928 99.9473C110.143 100.261 110.399 100.545 110.687 100.792C110.744 100.84 110.802 100.888 110.862 100.933C110.951 101.002 111.043 101.067 111.137 101.128C111.206 101.173 111.276 101.216 111.347 101.257C111.548 101.372 111.759 101.471 111.978 101.552C112.671 101.809 113.447 101.889 114.247 101.732ZM19.9134 85.5922C19.3104 84.1363 19 82.5759 19 81V76H28V81C28 81.394 28.0776 81.7841 28.2284 82.148C28.3791 82.512 28.6001 82.8428 28.8787 83.1213C29.1573 83.3999 29.488 83.6209 29.8519 83.7716C30.2159 83.9224 30.606 84 31 84H103.425C101.607 86.7564 101.873 90.5458 104.223 93H31C29.4241 93 27.8637 92.6896 26.4078 92.0866C24.9519 91.4835 23.629 90.5996 22.5147 89.4853C21.4004 88.371 20.5165 87.0481 19.9134 85.5922ZM46.1987 69.0652C49.2746 70.1848 52.6259 70.3018 55.7724 69.3996C58.9189 68.4973 61.6989 66.6221 63.7142 64.0428C65.7294 61.4634 66.8763 58.3122 66.9906 55.0409C67.1048 51.7697 66.1805 48.5462 64.3501 45.8325C62.5197 43.1188 59.8772 41.0543 56.8013 39.9348C53.7254 38.8152 50.3741 38.6982 47.2276 39.6004C44.0811 40.5027 41.3011 42.3779 39.2858 44.9572C37.2706 47.5366 36.1237 50.6878 36.0094 53.9591L51.5 54.5L46.1987 69.0652ZM121.23 59.4815C121.983 57.1026 122.187 54.5838 121.827 52.1147C121.466 49.6456 120.55 47.2904 119.147 45.2265C117.745 43.1625 115.893 41.4436 113.73 40.199C111.567 38.9543 109.15 38.2165 106.661 38.0409C104.172 37.8653 101.675 38.2566 99.3592 39.1853C97.0431 40.114 94.9678 41.5559 93.2895 43.4025C91.6112 45.2492 90.3736 47.4524 89.6698 49.8465C88.9661 52.2405 88.8145 54.763 89.2264 57.2241L97.9077 55.7709C97.7155 54.6227 97.7862 53.4459 98.1146 52.3289C98.4429 51.212 99.0203 50.1841 99.8033 49.3226C100.586 48.4611 101.554 47.7883 102.635 47.3551C103.716 46.9218 104.88 46.7392 106.042 46.8212C107.203 46.9031 108.331 47.2473 109.34 47.828C110.349 48.4086 111.213 49.2106 111.867 50.1735C112.521 51.1364 112.949 52.2352 113.117 53.3872C113.285 54.5391 113.19 55.7142 112.839 56.8241L121.23 59.4815Z" fill="white"/>
</svg>
