<svg width="234" height="262" viewBox="0 0 234 262" fill="none" xmlns="http://www.w3.org/2000/svg">
<path d="M11.5667 32.6546L50.1774 17.8582C65.6928 11.9123 83.0987 19.6489 89.0546 35.1383L98.389 59.4146L32.3322 88.6332L11.5667 32.6546Z" fill="#818181"/>
<path d="M84.0389 37.0605C79.1467 24.3374 64.8486 17.9826 52.104 22.866L18.4493 35.7632L35.3848 81.4155L91.5416 56.5731L84.0389 37.0605ZM105.238 62.2535L29.2798 95.8513L4.68416 29.5459L48.2526 12.8496C66.5384 5.84265 87.0529 14.9605 94.0722 33.2155L105.238 62.2535Z" fill="#F5F5F5"/>
<path d="M153.028 7.09241L192.753 24.9201C207.106 31.3612 214.064 47.7543 208.716 62.5292L198.88 89.7062L130.01 58.2099L153.028 7.09241Z" fill="#818181"/>
<path d="M194.957 20.0275C211.872 27.619 220.071 46.9397 213.769 64.3527L201.95 97.0103L122.921 60.8689L150.33 0L194.957 20.0275ZM137.099 55.5509L195.808 82.4013L203.662 60.7062C208.055 48.5699 202.34 35.1044 190.55 29.8133L155.725 14.1848L137.099 55.5509Z" fill="#F5F5F5"/>
<path d="M95.869 47.9585C106.137 33.3137 127.862 33.3137 138.131 47.9585L140.775 51.7307C146.525 59.9313 156.515 64.0621 166.389 62.3224L170.931 61.5221C188.564 58.4152 203.926 73.7514 200.814 91.3554L200.013 95.8897C198.27 105.747 202.408 115.72 210.622 121.46L214.401 124.101C229.07 134.352 229.07 156.04 214.401 166.291L210.622 168.932C202.408 174.672 198.27 184.645 200.013 194.502L200.814 199.037C203.926 216.641 188.564 231.977 170.931 228.87L166.389 228.07C156.515 226.33 146.525 230.461 140.775 238.661L138.131 242.434C127.862 257.078 106.137 257.078 95.869 242.434L93.2242 238.661C87.4743 230.461 77.4849 226.33 67.6106 228.07L63.0686 228.87C45.4351 231.977 30.0732 216.641 33.1853 199.037L33.9869 194.502C35.7295 184.645 31.5918 174.672 23.3774 168.932L19.5989 166.291C4.9295 156.04 4.92951 134.352 19.5989 124.101L23.3774 121.46C31.5918 115.72 35.7295 105.747 33.9869 95.8897L33.1853 91.3554C30.0732 73.7514 45.4351 58.4152 63.0687 61.5221L67.6106 62.3224C77.4849 64.0621 87.4743 59.9313 93.2242 51.7307L95.869 47.9585Z" fill="#818181"/>
<path d="M88.8245 43.0373C102.516 23.5109 131.482 23.5109 145.173 43.0373L147.818 46.8092C151.651 52.2761 158.311 55.0286 164.894 53.8691L169.436 53.0686C192.948 48.9261 213.43 69.3759 209.28 92.8479L208.479 97.3806C207.317 103.952 210.076 110.601 215.552 114.428L219.331 117.068C238.89 130.736 238.89 159.654 219.331 173.322L215.552 175.963C210.076 179.789 207.317 186.438 208.479 193.01L209.28 197.545C213.43 221.017 192.948 241.464 169.436 237.322L164.894 236.521C158.311 235.362 151.651 238.116 147.818 243.583L145.173 247.355C131.482 266.882 102.515 266.882 88.8245 247.355L86.1797 243.583C82.3464 238.117 75.6866 235.362 69.104 236.521L64.5637 237.322C41.0523 241.464 20.5681 221.017 24.7175 197.545L25.5194 193.01C26.6809 186.438 23.9237 179.79 18.4477 175.963L14.6694 173.322C-4.8898 159.654 -4.8898 130.736 14.6694 117.068L18.4477 114.428C23.9234 110.601 26.6811 103.952 25.5194 97.3806L24.7175 92.8479C20.5681 69.3759 41.0523 48.9261 64.5637 53.0686L69.104 53.8691C75.6865 55.0288 82.3463 52.2758 86.1797 46.8092L88.8245 43.0373ZM131.087 52.88C124.241 43.1175 109.759 43.1177 102.913 52.88L100.269 56.6519C92.6021 67.5859 79.2825 73.0951 66.117 70.7758L61.5747 69.9753C49.819 67.904 39.5779 78.1279 41.6526 89.8639L42.4545 94.3986C44.7777 107.542 39.2593 120.839 28.3069 128.493L24.5286 131.133C14.7499 137.967 14.7498 152.425 24.5286 159.259L28.3069 161.9C39.2594 169.553 44.7779 182.85 42.4545 195.994L41.6526 200.529C39.578 212.265 49.819 222.489 61.5747 220.417L66.117 219.617C79.2824 217.297 92.6021 222.805 100.269 233.739L102.913 237.51C109.759 247.274 124.241 247.274 131.087 237.51L133.732 233.739C141.398 222.805 154.718 217.297 167.883 219.617L172.425 220.417C184.181 222.488 194.422 212.265 192.347 200.529L191.546 195.994C189.222 182.851 194.739 169.553 205.691 161.9L209.469 159.259C219.249 152.425 219.249 137.967 209.469 131.133L205.691 128.493C194.739 120.839 189.222 107.542 191.546 94.3986L192.347 89.8639C194.422 78.1279 184.181 67.9041 172.425 69.9753L167.883 70.7758C154.717 73.0953 141.398 67.586 133.732 56.6519L131.087 52.88Z" fill="#F5F5F5"/>
<path d="M90.307 188.376H174.515V211.304H90.307V188.376Z" fill="#F5F5F5"/>
<path d="M90.307 211.304C86.2857 211.304 82.3038 210.513 78.5887 208.977C74.8736 207.44 71.4979 205.189 68.6544 202.35C65.811 199.511 63.5554 196.141 62.0166 192.432C60.4777 188.723 59.6857 184.748 59.6857 180.734H82.6516C82.6516 181.737 82.8496 182.731 83.2344 183.658C83.6191 184.586 84.183 185.428 84.8938 186.138C85.6047 186.847 86.4486 187.41 87.3774 187.794C88.3062 188.178 89.3016 188.376 90.307 188.376V211.304Z" fill="#F5F5F5"/>
<path d="M59.6857 180.734H82.6516V167.996H59.6857V180.734Z" fill="#F5F5F5"/>
<path d="M159.673 152.16C161.712 145.732 162.264 138.927 161.288 132.255C160.311 125.584 157.832 119.221 154.036 113.644C150.241 108.068 145.228 103.423 139.374 100.061C133.521 96.6977 126.98 94.7041 120.243 94.2297C113.506 93.7553 106.749 94.8125 100.481 97.3217C94.2127 99.831 88.5961 103.727 84.0539 108.716C79.5117 113.706 76.1622 119.659 74.2575 126.127C72.3528 132.595 71.9425 139.411 73.0575 146.061L96.5527 142.134C96.0326 139.032 96.224 135.852 97.1126 132.834C98.0012 129.817 99.5639 127.039 101.683 124.712C103.802 122.384 106.422 120.566 109.347 119.396C112.271 118.225 115.424 117.732 118.567 117.953C121.71 118.174 124.761 119.104 127.492 120.673C130.223 122.242 132.562 124.409 134.333 127.011C136.104 129.612 137.26 132.581 137.716 135.694C138.171 138.806 137.914 141.981 136.962 144.98L159.673 152.16Z" fill="#F5F5F5"/>
</svg>
