<svg width="343" height="68" viewBox="0 0 343 68" fill="none" xmlns="http://www.w3.org/2000/svg">
<path d="M333.523 54.1348L331.458 66H304.212L306.321 54.1348H333.523ZM320.472 2.01562L309.354 66H294.764L305.794 2.01562H320.472ZM334.622 27.416L332.645 38.8857H308.958L310.979 27.416H334.622ZM342.708 2.01562L340.643 13.9248H313.221L315.33 2.01562H342.708Z" fill="#137969"/>
<path d="M284.568 2.01562L273.45 66H258.729L269.847 2.01562H284.568ZM299.598 2.01562L297.532 13.9248H253.104L255.213 2.01562H299.598Z" fill="#137969"/>
<path d="M220.057 2.01562L223.177 29.6572L235.965 2.01562H252.269L228.494 43.7637L224.715 66H209.729L213.86 42.2695L204.764 2.05957L220.057 2.01562Z" fill="#137969"/>
<path d="M177.518 38.7979H163.938L165.696 28.6904L175.364 28.7783C176.976 28.749 178.396 28.4414 179.627 27.8555C180.887 27.2695 181.897 26.4199 182.659 25.3066C183.45 24.1934 183.978 22.8311 184.241 21.2197C184.446 19.8721 184.476 18.6709 184.329 17.6162C184.183 16.5322 183.743 15.668 183.011 15.0234C182.308 14.3496 181.194 13.998 179.671 13.9688L173.87 13.9248L164.773 66H150.184L161.214 2.01562L180.154 2.05957C182.85 2.08887 185.384 2.46973 187.757 3.20215C190.13 3.90527 192.195 4.95996 193.953 6.36621C195.74 7.77246 197.103 9.55957 198.04 11.7275C198.978 13.8662 199.358 16.415 199.183 19.374C198.978 22.7432 198.113 25.5557 196.59 27.8115C195.066 30.0381 193.03 31.7373 190.481 32.9092C187.962 34.0811 185.091 34.7256 181.868 34.8428L177.518 38.7979ZM172.464 66H155.281L162.444 54.1348L172.991 54.2227C174.515 54.1641 175.804 53.7979 176.858 53.124C177.913 52.4209 178.748 51.498 179.363 50.3555C180.008 49.1836 180.447 47.8945 180.682 46.4883C180.887 45.4629 181.004 44.3789 181.033 43.2363C181.092 42.0938 180.872 41.1123 180.374 40.292C179.905 39.4424 178.997 38.959 177.649 38.8418L165.872 38.7979L167.762 28.6904L179.935 28.7344L182.571 32.7334C185.384 32.8213 187.742 33.4365 189.646 34.5791C191.58 35.7217 193.016 37.333 193.953 39.4131C194.92 41.4932 195.286 43.9248 195.052 46.708C194.788 51.0732 193.646 54.6914 191.624 57.5625C189.632 60.4336 186.98 62.5723 183.67 63.9785C180.359 65.3848 176.624 66.0586 172.464 66Z" fill="#137969"/>
<path d="M148.836 28.8299L147.342 38.4979C146.814 42.2186 145.877 45.7928 144.529 49.2206C143.211 52.619 141.453 55.6512 139.256 58.3172C137.059 60.9833 134.378 63.0926 131.214 64.6454C128.079 66.1688 124.461 66.8719 120.359 66.7547C116.434 66.6669 113.152 65.8172 110.516 64.2059C107.879 62.5946 105.813 60.4706 104.319 57.8338C102.825 55.1678 101.844 52.1942 101.375 48.9129C100.906 45.6024 100.877 42.2186 101.287 38.7616L102.737 29.0497C103.265 25.4169 104.188 21.9012 105.506 18.5028C106.854 15.1044 108.641 12.0721 110.867 9.40611C113.094 6.7108 115.774 4.61607 118.909 3.12193C122.073 1.59849 125.706 0.895368 129.808 1.01256C133.675 1.07115 136.912 1.90611 139.52 3.51744C142.156 5.12877 144.222 7.25279 145.716 9.88951C147.239 12.5262 148.235 15.4999 148.704 18.8104C149.202 22.0917 149.246 25.4315 148.836 28.8299ZM132.488 38.7616L133.982 28.9178C134.129 27.6581 134.29 26.1639 134.466 24.4354C134.642 22.6776 134.642 20.9491 134.466 19.2499C134.29 17.5506 133.777 16.1151 132.928 14.9432C132.078 13.7713 130.716 13.1415 128.841 13.0536C126.614 12.9071 124.827 13.3465 123.479 14.3719C122.132 15.368 121.062 16.701 120.271 18.371C119.51 20.0116 118.938 21.784 118.558 23.6883C118.177 25.5633 117.869 27.3358 117.635 29.0057L116.185 38.8055C116.038 40.0653 115.862 41.5741 115.657 43.3319C115.481 45.0604 115.467 46.7889 115.613 48.5174C115.76 50.246 116.258 51.6961 117.107 52.868C117.986 54.0399 119.378 54.6698 121.282 54.7577C123.421 54.8749 125.164 54.4208 126.512 53.3954C127.889 52.37 128.973 51.0223 129.764 49.3524C130.584 47.6825 131.185 45.91 131.565 44.035C131.976 42.1307 132.283 40.3729 132.488 38.7616Z" fill="white" stroke="#137969" stroke-width="2"/>
<path d="M71.4739 54.1348L74.1236 38.8857H92.7031L94.6807 27.416H76.1166L78.4609 13.9248H100.701L102.767 2.01562H80.5303H75.3887H65.8525L54.8223 66H64.2705H69.4121H91.5166L93.582 54.1348H71.4739Z" fill="white" stroke="#137969" stroke-width="2"/>
<path d="M57.459 2.01562L46.3848 66H32.1025L23.3135 25.6143L16.2822 66H1.64844L12.6787 2.01562H27.0488L35.8379 42.4014L42.8252 2.01562H57.459Z" fill="white" stroke="#137969" stroke-width="2"/>
</svg>
