<svg width="343" height="67" viewBox="0 0 343 67" fill="none" xmlns="http://www.w3.org/2000/svg">
<path d="M310.415 53.1348L313.065 37.8857H331.645L333.622 26.416H315.058L317.402 12.9248H339.643L341.708 1.01562H319.472H314.33H304.794L293.764 65H303.212H308.354H330.458L332.523 53.1348H310.415Z" fill="#137969" stroke="white" stroke-width="2"/>
<path d="M281.499 12.9248H296.532L298.598 1.01562H283.568H268.847H254.213L252.104 12.9248H266.777L257.729 65H272.45L281.499 12.9248Z" fill="#137969" stroke="white" stroke-width="2"/>
<path d="M219.057 1.01562L222.177 28.6572L234.965 1.01562H251.269L227.494 42.7637L223.715 65H208.729L212.86 41.2695L203.764 1.05957L219.057 1.01562Z" fill="#137969" stroke="white" stroke-width="2"/>
<path fill-rule="evenodd" clip-rule="evenodd" d="M168.523 38.0329L176.649 38.0632C177.997 38.1804 178.905 38.6638 179.374 39.5134C179.872 40.3337 180.092 41.3152 180.033 42.4577C180.004 43.6003 179.887 44.6843 179.682 45.7097C179.447 47.1159 179.008 48.405 178.363 49.5769C177.748 50.7195 176.913 51.6423 175.858 52.3454C174.804 53.0193 173.515 53.3855 171.991 53.4441L165.84 53.3928L168.523 38.0329ZM171.464 65.2214H163.773H154.281H149.184L160.214 1.23703L179.154 1.28098C181.85 1.31027 184.384 1.69113 186.757 2.42355C189.13 3.12668 191.195 4.18137 192.953 5.58762C194.74 6.99387 196.103 8.78098 197.04 10.9489C197.978 13.0876 198.358 15.6364 198.183 18.5954C197.978 21.9646 197.113 24.7771 195.59 27.0329C194.066 29.2595 192.03 30.9587 189.481 32.1306C188.728 32.4809 187.944 32.7841 187.128 33.0402C187.662 33.2604 188.169 33.5139 188.646 33.8005C190.58 34.9431 192.016 36.5544 192.953 38.6345C193.92 40.7146 194.286 43.1462 194.052 45.9294C193.788 50.2946 192.646 53.9128 190.624 56.7839C188.632 59.655 185.98 61.7937 182.67 63.1999C179.359 64.6062 175.624 65.28 171.464 65.2214ZM175.37 27.9429L170.289 27.9246L172.87 13.1462L178.671 13.1902C180.194 13.2195 181.308 13.571 182.011 14.2448C182.743 14.8894 183.183 15.7536 183.329 16.8376C183.476 17.8923 183.446 19.0935 183.241 20.4411C182.978 22.0525 182.45 23.4148 181.659 24.528C180.897 25.6413 179.887 26.4909 178.627 27.0769C177.659 27.5377 176.574 27.8264 175.37 27.9429Z" fill="#137969" stroke="white" stroke-width="2"/>
<path d="M147.865 27.9541L146.371 37.6221C145.844 41.3428 144.906 44.917 143.559 48.3447C142.24 51.7432 140.482 54.7754 138.285 57.4414C136.088 60.1074 133.407 62.2168 130.243 63.7695C127.108 65.293 123.49 65.9961 119.389 65.8789C115.463 65.791 112.182 64.9414 109.545 63.3301C106.908 61.7188 104.843 59.5947 103.349 56.958C101.854 54.292 100.873 51.3184 100.404 48.0371C99.9355 44.7266 99.9062 41.3428 100.316 37.8858L101.767 28.1738C102.294 24.541 103.217 21.0254 104.535 17.627C105.883 14.2285 107.67 11.1963 109.896 8.53029C112.123 5.83497 114.804 3.74025 117.938 2.24611C121.103 0.722669 124.735 0.0195443 128.837 0.136732C132.704 0.195326 135.941 1.03029 138.549 2.64161C141.186 4.25294 143.251 6.37697 144.745 9.01369C146.269 11.6504 147.265 14.624 147.733 17.9346C148.231 21.2158 148.275 24.5557 147.865 27.9541ZM131.518 37.8858L133.012 28.042C133.158 26.7822 133.319 25.2881 133.495 23.5596C133.671 21.8018 133.671 20.0733 133.495 18.374C133.319 16.6748 132.807 15.2393 131.957 14.0674C131.107 12.8955 129.745 12.2656 127.87 12.1777C125.644 12.0313 123.856 12.4707 122.509 13.4961C121.161 14.4922 120.092 15.8252 119.301 17.4951C118.539 19.1358 117.968 20.9082 117.587 22.8125C117.206 24.6875 116.898 26.46 116.664 28.1299L115.214 37.9297C115.067 39.1895 114.892 40.6983 114.687 42.4561C114.511 44.1846 114.496 45.9131 114.643 47.6416C114.789 49.3701 115.287 50.8203 116.137 51.9922C117.016 53.1641 118.407 53.794 120.312 53.8818C122.45 53.999 124.193 53.5449 125.541 52.5195C126.918 51.4942 128.002 50.1465 128.793 48.4766C129.613 46.8067 130.214 45.0342 130.595 43.1592C131.005 41.2549 131.312 39.4971 131.518 37.8858Z" fill="white"/>
<path d="M92.582 53.1348L90.5166 65H63.2705L65.3799 53.1348H92.582ZM79.5303 1.01562L68.4121 65H53.8223L64.8525 1.01562H79.5303ZM93.6807 26.416L91.7031 37.8857H68.0166L70.0381 26.416H93.6807ZM101.767 1.01562L99.7012 12.9248H72.2793L74.3887 1.01562H101.767Z" fill="white"/>
<path d="M56.459 1.01562L45.3848 65H31.1025L22.3135 24.6143L15.2822 65H0.648438L11.6787 1.01562H26.0488L34.8379 41.4014L41.8252 1.01562H56.459Z" fill="white"/>
</svg>
