<svg width="33" height="30" viewBox="0 0 33 30" fill="none" xmlns="http://www.w3.org/2000/svg">
<path d="M20.625 15.4688L14.85 22.0312L12.375 19.4016" stroke="#F5F5F5" stroke-width="2" stroke-linecap="round" stroke-linejoin="round"/>
<path d="M10.3125 10.3125V8.4375C10.3125 6.94566 10.9644 5.51492 12.1248 4.46002C13.2852 3.40513 14.859 2.8125 16.5 2.8125C18.141 2.8125 19.7148 3.40513 20.8752 4.46002C22.0356 5.51492 22.6875 6.94566 22.6875 8.4375V10.3125M5.15625 10.3125C4.88275 10.3125 4.62044 10.4113 4.42705 10.5871C4.23365 10.7629 4.125 11.0014 4.125 11.25V23.9062C4.125 25.6781 5.78531 27.1875 7.73438 27.1875H25.2656C27.2147 27.1875 28.875 25.7514 28.875 23.9795V11.25C28.875 11.0014 28.7664 10.7629 28.573 10.5871C28.3796 10.4113 28.1173 10.3125 27.8438 10.3125H5.15625Z" stroke="#F5F5F5" stroke-width="2" stroke-linecap="round" stroke-linejoin="round"/>
</svg>
