<svg width="44" height="40" viewBox="0 0 44 40" fill="none" xmlns="http://www.w3.org/2000/svg">
<path d="M14.7259 40C16.5332 40 17.9983 38.5077 17.9983 36.6667C17.9983 34.8258 16.5332 33.3334 14.7259 33.3334C12.9186 33.3334 11.4535 34.8258 11.4535 36.6667C11.4535 38.5077 12.9186 40 14.7259 40Z" fill="#F5F5F5"/>
<path d="M37.6329 40C39.4402 40 40.9053 38.5077 40.9053 36.6667C40.9053 34.8258 39.4402 33.3334 37.6329 33.3334C35.8256 33.3334 34.3605 34.8258 34.3605 36.6667C34.3605 38.5077 35.8256 40 37.6329 40Z" fill="#F5F5F5"/>
<path d="M43.4414 5.91458C43.2116 5.62818 42.922 5.3975 42.5937 5.23931C42.2654 5.08111 41.9066 4.99936 41.5434 5H10.4196L9.79273 1.37708C9.72589 0.991175 9.52769 0.641599 9.23294 0.389758C8.9382 0.137917 8.56577 -8.23349e-05 8.18106 3.68544e-08H1.63621C1.20226 3.68544e-08 0.786085 0.175595 0.479235 0.488156C0.172386 0.800716 0 1.22464 0 1.66667C0 2.10869 0.172386 2.53262 0.479235 2.84518C0.786085 3.15774 1.20226 3.33333 1.63621 3.33333H6.80869L11.478 30.2896C11.5449 30.6755 11.7431 31.0251 12.0378 31.2769C12.3326 31.5287 12.705 31.6667 13.0897 31.6667H39.2691C39.703 31.6667 40.1192 31.4911 40.4261 31.1785C40.7329 30.866 40.9053 30.442 40.9053 30C40.9053 29.558 40.7329 29.134 40.4261 28.8215C40.1192 28.5089 39.703 28.3333 39.2691 28.3333H14.4621L13.8853 25H38.5982C39.1657 24.9993 39.7154 24.7989 40.1545 24.4327C40.5935 24.0665 40.8949 23.5571 41.0076 22.9906L43.9527 7.99063C44.0237 7.62761 44.0147 7.25307 43.9262 6.89405C43.8378 6.53503 43.6722 6.20049 43.4414 5.91458Z" fill="#F5F5F5"/>
</svg>
