<svg width="39" height="35" viewBox="0 0 39 35" fill="none" xmlns="http://www.w3.org/2000/svg">
<path d="M19.4586 34.375C18.8701 34.3743 18.2953 34.2037 17.8092 33.8854C10.6076 29.1965 7.48922 25.9814 5.76923 23.9714C2.10381 19.6867 0.348995 15.2878 0.398478 10.5241C0.456209 5.06523 5.0224 0.625 10.5773 0.625C14.6166 0.625 17.4142 2.80732 19.0435 4.6249C19.0951 4.6819 19.1589 4.7276 19.2305 4.75892C19.3021 4.79025 19.3799 4.80645 19.4586 4.80645C19.5373 4.80645 19.6151 4.79025 19.6867 4.75892C19.7584 4.7276 19.8221 4.6819 19.8737 4.6249C21.503 2.80557 24.3006 0.625 28.3399 0.625C33.8949 0.625 38.4611 5.06523 38.5188 10.525C38.5683 15.2896 36.8116 19.6885 33.148 23.9723C31.428 25.9823 28.3097 29.1974 21.1081 33.8863C20.6218 34.2043 20.0471 34.3745 19.4586 34.375Z" fill="#C30D0D"/>
</svg>
