<svg width="40" height="60" viewBox="0 0 40 60" fill="none" xmlns="http://www.w3.org/2000/svg">
<path d="M20 0C8.95875 0 0 8.63973 0 19.2857C0 36.4286 20 60 20 60C20 60 40 36.4286 40 19.2857C40 8.63973 31.0413 0 20 0ZM20 30C18.4177 30 16.871 29.4973 15.5554 28.5555C14.2398 27.6136 13.2145 26.2749 12.609 24.7087C12.0035 23.1425 11.845 21.4191 12.1537 19.7564C12.4624 18.0937 13.2243 16.5664 14.3431 15.3677C15.462 14.1689 16.8874 13.3526 18.4393 13.0218C19.9911 12.6911 21.5997 12.8609 23.0615 13.5096C24.5233 14.1584 25.7727 15.257 26.6518 16.6665C27.5308 18.0761 28 19.7333 28 21.4286C27.9977 23.7011 27.1541 25.8798 25.6543 27.4867C24.1545 29.0937 22.121 29.9975 20 30Z" fill="#F5F5F5"/>
</svg>
