<svg width="21" height="23" viewBox="0 0 21 23" fill="none" xmlns="http://www.w3.org/2000/svg">
<path d="M19.6275 3.17531L14.7631 3.16684L14.7652 1.98827C14.7661 1.46731 14.5535 0.967316 14.174 0.59828C13.7946 0.229244 13.2794 0.0213964 12.7419 0.0204608L8.68823 0.0134054C8.15069 0.0124697 7.63479 0.218523 7.25403 0.586236C6.87327 0.953949 6.65885 1.4532 6.65792 1.97416L6.65582 3.15273L1.79146 3.14426C1.57644 3.14389 1.37008 3.22631 1.21778 3.3734C1.06548 3.52048 0.979704 3.72018 0.979333 3.92857C0.978962 4.13695 1.06402 4.33695 1.2158 4.48456C1.36758 4.63218 1.57364 4.71532 1.78866 4.71569L2.65006 4.71719L3.58613 19.6926C3.65574 21.0112 4.69677 22.0065 6.0142 22.0088L15.3376 22.025C16.6616 22.0273 17.6853 21.0578 17.7738 19.7212L18.7633 4.74523L19.6247 4.74673C19.8397 4.74711 20.046 4.66469 20.1983 4.5176C20.3506 4.37052 20.4364 4.17082 20.4368 3.96243C20.4371 3.75405 20.3521 3.55405 20.2003 3.40644C20.0485 3.25882 19.8425 3.17568 19.6275 3.17531ZM7.46745 18.8685L7.43857 18.8684C7.22846 18.8682 7.02665 18.7889 6.87566 18.6473C6.72468 18.5057 6.63631 18.3128 6.62919 18.1093L6.24341 7.10858C6.23612 6.90018 6.31455 6.69752 6.46145 6.54518C6.60834 6.39283 6.81167 6.30329 7.0267 6.29624C7.24174 6.28919 7.45086 6.36521 7.60806 6.50759C7.76527 6.64996 7.85768 6.84702 7.86497 7.05542L8.25074 18.0561C8.25442 18.1593 8.23707 18.2622 8.19968 18.3589C8.1623 18.4556 8.10561 18.5442 8.03286 18.6197C7.96011 18.6951 7.87273 18.7559 7.77571 18.7986C7.67869 18.8413 7.57394 18.865 7.46745 18.8685ZM11.4936 18.0897C11.4932 18.2981 11.4075 18.4978 11.2552 18.6449C11.1029 18.792 10.8965 18.8744 10.6815 18.874C10.4665 18.8737 10.2604 18.7905 10.1086 18.6429C9.95683 18.4953 9.87177 18.2953 9.87215 18.0869L9.89173 7.08694C9.8921 6.87856 9.97788 6.67885 10.1302 6.53177C10.2825 6.38468 10.4888 6.30226 10.7039 6.30264C10.9189 6.30301 11.1249 6.38615 11.2767 6.53377C11.4285 6.68138 11.5136 6.88138 11.5132 7.08976L11.4936 18.0897ZM13.1416 3.16402L8.27727 3.15555L8.27937 1.97698C8.27885 1.92523 8.28901 1.87389 8.30925 1.826C8.32949 1.7781 8.35941 1.73461 8.39724 1.69808C8.43507 1.66154 8.48005 1.63271 8.52954 1.61326C8.57903 1.59381 8.63203 1.58415 8.68544 1.58483L12.7391 1.59189C12.7925 1.59139 12.8454 1.60124 12.8949 1.62086C12.9443 1.64048 12.9892 1.66947 13.0269 1.70613C13.0646 1.7428 13.0943 1.78639 13.1144 1.83436C13.1345 1.88233 13.1444 1.9337 13.1437 1.98545L13.1416 3.16402ZM14.7365 18.1234C14.7286 18.3269 14.6396 18.5194 14.4881 18.6605C14.3366 18.8016 14.1345 18.8802 13.9244 18.8797L13.895 18.8796C13.7886 18.8758 13.6839 18.8516 13.5871 18.8086C13.4903 18.7655 13.4032 18.7044 13.3308 18.6287C13.2584 18.553 13.202 18.4642 13.165 18.3674C13.128 18.2706 13.1111 18.1677 13.1151 18.0646L13.5401 7.0653C13.544 6.96212 13.5689 6.86072 13.6134 6.76688C13.6578 6.67303 13.7208 6.58859 13.7989 6.51836C13.877 6.44814 13.9686 6.39351 14.0685 6.35759C14.1684 6.32167 14.2746 6.30518 14.381 6.30904C14.4875 6.3129 14.5921 6.33704 14.6889 6.38009C14.7858 6.42315 14.8729 6.48426 14.9454 6.55994C15.0178 6.63563 15.0742 6.72441 15.1113 6.8212C15.1484 6.918 15.1654 7.02093 15.1614 7.1241L14.7365 18.1234Z" fill="#C30D0D"/>
</svg>
