<svg width="24" height="26" viewBox="0 0 24 26" fill="none" xmlns="http://www.w3.org/2000/svg">
<path d="M23 3.63053H17V2.26908C17 1.66728 16.7366 1.09013 16.2678 0.664599C15.7989 0.239063 15.163 0 14.5 0H9.5C8.83696 0 8.20107 0.239063 7.73223 0.664599C7.26339 1.09013 7 1.66728 7 2.26908V3.63053H1C0.734784 3.63053 0.48043 3.72616 0.292893 3.89637C0.105357 4.06658 0 4.29744 0 4.53816C0 4.77888 0.105357 5.00974 0.292893 5.17996C0.48043 5.35017 0.734784 5.4458 1 5.4458H2.0625L3.25 22.743C3.33875 24.2661 4.625 25.4137 6.25 25.4137H17.75C19.3831 25.4137 20.6437 24.2917 20.75 22.7475L21.9375 5.4458H23C23.2652 5.4458 23.5196 5.35017 23.7071 5.17996C23.8946 5.00974 24 4.77888 24 4.53816C24 4.29744 23.8946 4.06658 23.7071 3.89637C23.5196 3.72616 23.2652 3.63053 23 3.63053ZM8.03563 21.7832H8C7.74084 21.7833 7.49174 21.6922 7.3052 21.5289C7.11865 21.3656 7.00923 21.143 7 20.9079L6.5 8.20103C6.49055 7.96031 6.58685 7.72604 6.7677 7.54977C6.94856 7.37349 7.19916 7.26964 7.46437 7.26106C7.72959 7.25249 7.9877 7.33989 8.18192 7.50404C8.37613 7.66819 8.49055 7.89564 8.5 8.13636L9 20.8432C9.00476 20.9624 8.98359 21.0813 8.93769 21.1931C8.89178 21.3049 8.82206 21.4073 8.73249 21.4946C8.64292 21.5819 8.53527 21.6524 8.4157 21.7019C8.29613 21.7514 8.16697 21.779 8.03563 21.7832ZM13 20.8756C13 21.1163 12.8946 21.3471 12.7071 21.5173C12.5196 21.6876 12.2652 21.7832 12 21.7832C11.7348 21.7832 11.4804 21.6876 11.2929 21.5173C11.1054 21.3471 11 21.1163 11 20.8756V8.16869C11 7.92798 11.1054 7.69712 11.2929 7.5269C11.4804 7.35669 11.7348 7.26106 12 7.26106C12.2652 7.26106 12.5196 7.35669 12.7071 7.5269C12.8946 7.69712 13 7.92798 13 8.16869V20.8756ZM15 3.63053H9V2.26908C8.99925 2.2093 9.01166 2.14998 9.03652 2.09461C9.06139 2.03924 9.09819 1.98894 9.14477 1.94666C9.19135 1.90438 9.24677 1.87098 9.30777 1.84842C9.36877 1.82585 9.43413 1.81458 9.5 1.81527H14.5C14.5659 1.81458 14.6312 1.82585 14.6922 1.84842C14.7532 1.87098 14.8087 1.90438 14.8552 1.94666C14.9018 1.98894 14.9386 2.03924 14.9635 2.09461C14.9883 2.14998 15.0008 2.2093 15 2.26908V3.63053ZM17 20.9079C16.9908 21.143 16.8813 21.3656 16.6948 21.5289C16.5083 21.6922 16.2592 21.7833 16 21.7832H15.9638C15.8325 21.7789 15.7034 21.7513 15.5839 21.7017C15.4644 21.6522 15.3568 21.5817 15.2673 21.4945C15.1778 21.4072 15.1081 21.3047 15.0623 21.193C15.0164 21.0812 14.9952 20.9624 15 20.8432L15.5 8.13636C15.5047 8.01717 15.5352 7.89998 15.5898 7.79149C15.6443 7.68299 15.7219 7.58532 15.8181 7.50404C15.9143 7.42276 16.0271 7.35947 16.1502 7.31778C16.2733 7.27609 16.4043 7.25682 16.5356 7.26106C16.6669 7.26531 16.7961 7.29299 16.9156 7.34253C17.0351 7.39206 17.1427 7.46248 17.2323 7.54977C17.3218 7.63705 17.3916 7.73949 17.4375 7.85123C17.4834 7.96298 17.5047 8.08184 17.5 8.20103L17 20.9079Z" fill="white"/>
</svg>
