<svg width="70" height="70" viewBox="0 0 70 70" fill="none" xmlns="http://www.w3.org/2000/svg">
<path d="M4.375 56.875C4.375 57.4552 4.60547 58.0116 5.0157 58.4218C5.42594 58.832 5.98234 59.0625 6.5625 59.0625H63.4375C64.0177 59.0625 64.5741 58.832 64.9843 58.4218C65.3945 58.0116 65.625 57.4552 65.625 56.875V30.3516H4.375V56.875ZM13.3984 38.0078C13.3984 37.7177 13.5137 37.4395 13.7188 37.2344C13.9239 37.0293 14.2021 36.9141 14.4922 36.9141H27.0703C27.3604 36.9141 27.6386 37.0293 27.8437 37.2344C28.0488 37.4395 28.1641 37.7177 28.1641 38.0078V46.7578C28.1641 47.0479 28.0488 47.3261 27.8437 47.5312C27.6386 47.7363 27.3604 47.8516 27.0703 47.8516H14.4922C14.2021 47.8516 13.9239 47.7363 13.7188 47.5312C13.5137 47.3261 13.3984 47.0479 13.3984 46.7578V38.0078ZM63.4375 10.9375H6.5625C5.98234 10.9375 5.42594 11.168 5.0157 11.5782C4.60547 11.9884 4.375 12.5448 4.375 13.125V22.1484H65.625V13.125C65.625 12.5448 65.3945 11.9884 64.9843 11.5782C64.5741 11.168 64.0177 10.9375 63.4375 10.9375Z" fill="white"/>
</svg>
