<svg width="47" height="60" viewBox="0 0 47 60" fill="none" xmlns="http://www.w3.org/2000/svg">
<path d="M38.1025 4H36.593C36.3804 3.9998 36.1728 3.93911 35.9972 3.82585C35.8217 3.71259 35.6863 3.552 35.6087 3.365C35.202 2.37482 34.4882 1.52378 33.561 0.923347C32.6337 0.322912 31.5361 0.00107865 30.4119 0H16.1579C15.0337 0.00107865 13.9361 0.322912 13.0088 0.923347C12.0815 1.52378 11.3678 2.37482 10.9611 3.365C10.8835 3.552 10.7481 3.71259 10.5725 3.82585C10.397 3.93911 10.1894 3.9998 9.97678 4H8.46723C6.22158 4 4.06791 4.84285 2.47999 6.34315C0.89208 7.84344 0 9.87827 0 12V52C0 54.1217 0.89208 56.1566 2.47999 57.6569C4.06791 59.1571 6.22158 60 8.46723 60H38.1025C40.3482 60 42.5019 59.1571 44.0898 57.6569C45.6777 56.1566 46.5698 54.1217 46.5698 52V12C46.5698 9.87827 45.6777 7.84344 44.0898 6.34315C42.5019 4.84285 40.3482 4 38.1025 4ZM31.7349 12H14.8349C14.2734 12 13.735 11.7893 13.338 11.4142C12.9411 11.0391 12.718 10.5304 12.718 10C12.718 9.46957 12.9411 8.96086 13.338 8.58579C13.735 8.21071 14.2734 8 14.8349 8H31.7349C32.2963 8 32.8347 8.21071 33.2317 8.58579C33.6287 8.96086 33.8517 9.46957 33.8517 10C33.8517 10.5304 33.6287 11.0391 33.2317 11.4142C32.8347 11.7893 32.2963 12 31.7349 12Z" fill="#F5F5F5"/>
</svg>
