<svg width="40" height="40" viewBox="0 0 40 40" fill="none" xmlns="http://www.w3.org/2000/svg">
<path d="M20.2798 0.0018582C9.03221 -0.150051 -0.150058 9.03178 0.00185829 20.2788C0.151851 31.0653 8.9351 39.8481 19.7221 39.9981C30.9716 40.1519 40.1519 30.9701 39.9981 19.7231C39.85 8.93467 31.0668 0.151844 20.2798 0.0018582ZM32.435 31.4652C32.3967 31.5067 32.3497 31.5391 32.2975 31.5604C32.2452 31.5816 32.1889 31.5911 32.1326 31.5882C32.0763 31.5853 32.0213 31.57 31.9715 31.5434C31.9217 31.5168 31.8784 31.4796 31.8446 31.4345C30.9846 30.3093 29.9314 29.346 28.7342 28.5896C26.2862 27.0185 23.1844 26.1532 20.0009 26.1532C16.8174 26.1532 13.7156 27.0185 11.2677 28.5896C10.0705 29.3457 9.0173 30.3087 8.15725 31.4335C8.12346 31.4787 8.08015 31.5159 8.03039 31.5424C7.98062 31.569 7.92562 31.5843 7.86928 31.5872C7.81295 31.5902 7.75665 31.5807 7.7044 31.5594C7.65214 31.5382 7.60519 31.5057 7.56689 31.4643C4.74556 28.4188 3.14738 24.4393 3.07864 20.2884C2.92192 10.9326 10.5994 3.10157 19.9596 3.07849C29.3197 3.05542 36.9232 10.6557 36.9232 20C36.9265 24.2509 35.3233 28.3461 32.435 31.4652Z" fill="#F5F5F5"/>
<path d="M20.0009 9.2317C18.1049 9.2317 16.3905 9.94222 15.1723 11.2334C13.9541 12.5247 13.3455 14.3101 13.483 16.2262C13.7618 19.9999 16.6857 23.0766 20.0009 23.0766C23.3162 23.0766 26.2343 19.9999 26.5189 16.2272C26.6612 14.3293 26.0574 12.5602 24.819 11.245C23.596 9.94702 21.8845 9.2317 20.0009 9.2317Z" fill="#F5F5F5"/>
</svg>
