<svg width="41" height="40" viewBox="0 0 41 40" fill="none" xmlns="http://www.w3.org/2000/svg">
<path d="M4.25 33.4375L13.9437 23.7422C12.3816 21.5954 11.5412 19.0081 11.5437 16.3531C11.5437 9.40391 17.1977 3.75 24.1469 3.75C31.0961 3.75 36.75 9.40391 36.75 16.3531C36.75 23.3023 31.0961 28.9563 24.1469 28.9563C21.4919 28.9588 18.9046 28.1184 16.7578 26.5563L7.0625 36.25L4.25 33.4375ZM24.1469 24.9758C25.8525 24.9759 27.5199 24.4703 28.9381 23.5228C30.3563 22.5753 31.4617 21.2285 32.1145 19.6528C32.7673 18.077 32.9381 16.343 32.6054 14.6702C32.2727 12.9973 31.4514 11.4607 30.2453 10.2547C29.0393 9.0486 27.5027 8.22728 25.8298 7.89456C24.157 7.56185 22.423 7.73269 20.8472 8.38548C19.2715 9.03826 17.9247 10.1437 16.9772 11.5619C16.0297 12.9801 15.5241 14.6475 15.5242 16.3531C15.5269 18.6392 16.4362 20.8308 18.0527 22.4473C19.6692 24.0638 21.8608 24.9731 24.1469 24.9758Z" fill="#303030"/>
</svg>
