<svg width="26" height="26" viewBox="0 0 26 26" fill="none" xmlns="http://www.w3.org/2000/svg">
<path d="M16.25 13.4062L11.7 19.0938L9.75 16.8147" stroke="#F5F5F5" stroke-width="2" stroke-linecap="round" stroke-linejoin="round"/>
<path d="M8.125 8.9375V7.3125C8.125 6.01957 8.63861 4.77959 9.55285 3.86535C10.4671 2.95111 11.7071 2.4375 13 2.4375C14.2929 2.4375 15.5329 2.95111 16.4471 3.86535C17.3614 4.77959 17.875 6.01957 17.875 7.3125V8.9375M4.0625 8.9375C3.84701 8.9375 3.64035 9.0231 3.48798 9.17548C3.3356 9.32785 3.25 9.53451 3.25 9.75V20.7188C3.25 22.2544 4.55813 23.5625 6.09375 23.5625H19.9062C21.4419 23.5625 22.75 22.3179 22.75 20.7822V9.75C22.75 9.53451 22.6644 9.32785 22.512 9.17548C22.3597 9.0231 22.153 8.9375 21.9375 8.9375H4.0625Z" stroke="#F5F5F5" stroke-width="2" stroke-linecap="round" stroke-linejoin="round"/>
</svg>
