<svg width="41" height="41" viewBox="0 0 41 41" fill="none" xmlns="http://www.w3.org/2000/svg">
<path d="M0.172363 20.4849C0.172363 31.7026 9.26709 40.7974 20.4849 40.7974C31.7026 40.7974 40.7974 31.7026 40.7974 20.4849C40.7974 9.26709 31.7026 0.172363 20.4849 0.172363C9.26709 0.172363 0.172363 9.26709 0.172363 20.4849ZM24.7817 13.2446V27.7251C24.7815 28.0218 24.6968 28.3124 24.5375 28.5627C24.3782 28.8131 24.1509 29.0129 23.8822 29.1388C23.6135 29.2647 23.3145 29.3115 23.0202 29.2737C22.7258 29.2359 22.4484 29.115 22.2202 28.9253L13.52 21.686C13.3438 21.5394 13.2019 21.3558 13.1046 21.1482C13.0073 20.9406 12.9568 20.7141 12.9568 20.4849C12.9568 20.2556 13.0073 20.0291 13.1046 19.8215C13.2019 19.6139 13.3438 19.4303 13.52 19.2837L22.2202 12.0444C22.4484 11.8547 22.7258 11.7339 23.0202 11.6961C23.3145 11.6583 23.6135 11.705 23.8822 11.8309C24.1509 11.9568 24.3782 12.1567 24.5375 12.407C24.6968 12.6574 24.7815 12.9479 24.7817 13.2446Z" fill="white"/>
</svg>
