<svg width="30" height="30" viewBox="0 0 30 30" fill="none" xmlns="http://www.w3.org/2000/svg">
<path d="M15 18.75C17.0711 18.75 18.75 17.0711 18.75 15C18.75 12.9289 17.0711 11.25 15 11.25C12.9289 11.25 11.25 12.9289 11.25 15C11.25 17.0711 12.9289 18.75 15 18.75Z" fill="white"/>
<path d="M28.7601 13.9805C27.2097 11.5828 25.1982 9.54609 22.9435 8.09004C20.4492 6.47754 17.6953 5.625 14.98 5.625C12.4886 5.625 10.0388 6.33691 7.69858 7.74082C5.31206 9.17227 3.14995 11.2635 1.27202 13.9559C1.06002 14.2601 0.94326 14.6206 0.936583 14.9914C0.929905 15.3622 1.03361 15.7266 1.23452 16.0383C2.78198 18.46 4.77358 20.4996 6.99311 21.9357C9.49214 23.5547 12.1816 24.375 14.98 24.375C17.7169 24.375 20.4767 23.5295 22.9605 21.9305C25.214 20.4791 27.2214 18.4348 28.766 16.0172C28.96 15.7127 29.0625 15.359 29.0615 14.998C29.0604 14.637 28.9558 14.2838 28.7601 13.9805ZM14.9999 20.625C13.8874 20.625 12.7999 20.2951 11.8749 19.677C10.9498 19.0589 10.2289 18.1804 9.80313 17.1526C9.37738 16.1248 9.26599 14.9938 9.48303 13.9026C9.70007 12.8115 10.2358 11.8092 11.0225 11.0225C11.8091 10.2359 12.8114 9.70013 13.9026 9.48308C14.9937 9.26604 16.1247 9.37744 17.1525 9.80318C18.1804 10.2289 19.0589 10.9499 19.677 11.8749C20.295 12.7999 20.6249 13.8875 20.6249 15C20.6232 16.4913 20.0301 17.9211 18.9755 18.9756C17.921 20.0301 16.4913 20.6233 14.9999 20.625Z" fill="white"/>
</svg>
