<svg width="30" height="31" viewBox="0 0 30 31" fill="none" xmlns="http://www.w3.org/2000/svg">
<path d="M15 19.25C17.0711 19.25 18.75 17.5711 18.75 15.5C18.75 13.4289 17.0711 11.75 15 11.75C12.9289 11.75 11.25 13.4289 11.25 15.5C11.25 17.5711 12.9289 19.25 15 19.25Z" fill="#137969"/>
<path d="M28.7601 14.4805C27.2097 12.0828 25.1982 10.0461 22.9435 8.59004C20.4492 6.97754 17.6953 6.125 14.98 6.125C12.4886 6.125 10.0388 6.83691 7.69858 8.24082C5.31206 9.67227 3.14995 11.7635 1.27202 14.4559C1.06002 14.7601 0.94326 15.1206 0.936583 15.4914C0.929905 15.8622 1.03361 16.2266 1.23452 16.5383C2.78198 18.96 4.77358 20.9996 6.99311 22.4357C9.49214 24.0547 12.1816 24.875 14.98 24.875C17.7169 24.875 20.4767 24.0295 22.9605 22.4305C25.214 20.9791 27.2214 18.9348 28.766 16.5172C28.96 16.2127 29.0625 15.859 29.0615 15.498C29.0604 15.137 28.9558 14.7838 28.7601 14.4805ZM14.9999 21.125C13.8874 21.125 12.7999 20.7951 11.8749 20.177C10.9498 19.5589 10.2289 18.6804 9.80313 17.6526C9.37738 16.6248 9.26599 15.4938 9.48303 14.4026C9.70007 13.3115 10.2358 12.3092 11.0225 11.5225C11.8091 10.7359 12.8114 10.2001 13.9026 9.98308C14.9937 9.76604 16.1247 9.87743 17.1525 10.3032C18.1804 10.7289 19.0589 11.4499 19.677 12.3749C20.295 13.2999 20.625 14.3875 20.625 15.5C20.6232 16.9913 20.0301 18.4211 18.9755 19.4756C17.921 20.5301 16.4913 21.1233 14.9999 21.125Z" fill="#137969"/>
</svg>
