<svg width="30" height="30" viewBox="0 0 30 30" fill="none" xmlns="http://www.w3.org/2000/svg">
<path d="M25.3126 26.25C25.1895 26.2502 25.0675 26.226 24.9538 26.1789C24.8401 26.1317 24.7368 26.0625 24.6499 25.9752L4.02492 5.35019C3.85653 5.17295 3.76404 4.93693 3.76717 4.69247C3.7703 4.448 3.8688 4.21443 4.04168 4.04155C4.21455 3.86868 4.44812 3.77017 4.69259 3.76704C4.93705 3.76391 5.17307 3.85641 5.35031 4.0248L25.9753 24.6498C26.1063 24.7809 26.1956 24.9479 26.2317 25.1297C26.2678 25.3115 26.2493 25.5 26.1783 25.6712C26.1074 25.8425 25.9873 25.9888 25.8332 26.0919C25.6791 26.1949 25.498 26.2499 25.3126 26.25ZM14.5314 18.5068L11.4968 15.4723C11.4794 15.455 11.4571 15.4437 11.4329 15.4398C11.4087 15.4359 11.3839 15.4397 11.362 15.4506C11.3401 15.4615 11.3221 15.479 11.3107 15.5007C11.2992 15.5223 11.2949 15.547 11.2982 15.5713C11.4207 16.3586 11.7903 17.0865 12.3537 17.6499C12.9171 18.2133 13.6451 18.583 14.4323 18.7055C14.4566 18.7088 14.4813 18.7044 14.5029 18.6929C14.5246 18.6815 14.5421 18.6635 14.553 18.6416C14.564 18.6197 14.5677 18.5949 14.5639 18.5708C14.56 18.5466 14.5486 18.5242 14.5314 18.5068ZM15.4689 11.4932L18.5081 14.5312C18.5255 14.5487 18.5479 14.5603 18.5722 14.5643C18.5965 14.5684 18.6214 14.5646 18.6435 14.5537C18.6655 14.5427 18.6836 14.5251 18.695 14.5033C18.7065 14.4815 18.7108 14.4566 18.7073 14.4322C18.5851 13.6439 18.2152 12.9149 17.6511 12.3508C17.087 11.7867 16.358 11.4167 15.5696 11.2945C15.5452 11.2908 15.5203 11.2948 15.4983 11.3061C15.4763 11.3174 15.4585 11.3353 15.4473 11.3573C15.4361 11.3793 15.4322 11.4043 15.436 11.4287C15.4399 11.4531 15.4514 11.4757 15.4689 11.4932Z" fill="#F5F5F5"/>
<path d="M28.7695 16.0172C28.9635 15.7127 29.0661 15.359 29.065 14.998C29.064 14.637 28.9594 14.2838 28.7637 13.9805C27.2133 11.5828 25.2018 9.54609 22.9471 8.09004C20.4492 6.47754 17.6953 5.625 14.9812 5.625C13.5504 5.62697 12.1294 5.86025 10.773 6.31582C10.7351 6.32845 10.701 6.35058 10.674 6.38011C10.647 6.40964 10.628 6.44559 10.6189 6.48454C10.6097 6.52348 10.6107 6.56412 10.6216 6.60259C10.6326 6.64105 10.6533 6.67607 10.6816 6.7043L13.4496 9.47227C13.4784 9.50107 13.5141 9.5219 13.5534 9.53268C13.5926 9.54347 13.634 9.54385 13.6734 9.53379C14.6117 9.30515 15.593 9.3219 16.5228 9.58244C17.4527 9.84298 18.2999 10.3385 18.9827 11.0214C19.6656 11.7042 20.1611 12.5514 20.4217 13.4813C20.6822 14.4111 20.699 15.3924 20.4703 16.3307C20.4604 16.37 20.4608 16.4113 20.4716 16.4504C20.4824 16.4895 20.5031 16.5252 20.5318 16.5539L24.5133 20.5383C24.5547 20.5798 24.6102 20.6042 24.6687 20.6068C24.7273 20.6094 24.7847 20.59 24.8297 20.5523C26.3623 19.246 27.6903 17.7173 28.7695 16.0172ZM15 20.625C14.1485 20.625 13.3081 20.4318 12.5421 20.0597C11.7762 19.6877 11.1047 19.1466 10.5783 18.4773C10.0519 17.808 9.68431 17.0279 9.50327 16.1959C9.32224 15.3638 9.33247 14.5015 9.5332 13.674C9.54315 13.6347 9.54272 13.5934 9.53193 13.5543C9.52115 13.5151 9.50038 13.4795 9.47168 13.4508L5.55527 9.53262C5.51374 9.49104 5.45811 9.46658 5.3994 9.46409C5.34069 9.46159 5.28319 9.48124 5.23828 9.51914C3.80918 10.7385 2.48437 12.2221 1.27324 13.9559C1.06124 14.2601 0.94448 14.6206 0.937803 14.9914C0.931126 15.3622 1.03483 15.7266 1.23574 16.0383C2.7832 18.46 4.77422 20.4996 6.99433 21.9357C9.4957 23.5547 12.1828 24.375 14.9812 24.375C16.4265 24.3711 17.8623 24.1428 19.2375 23.6982C19.2758 23.686 19.3103 23.6641 19.3377 23.6347C19.3651 23.6053 19.3845 23.5693 19.394 23.5302C19.4034 23.4911 19.4027 23.4503 19.3918 23.4116C19.3809 23.3729 19.3603 23.3376 19.3318 23.3092L16.5504 20.5283C16.5217 20.4996 16.486 20.4788 16.4469 20.4681C16.4078 20.4573 16.3665 20.4568 16.3271 20.4668C15.8926 20.5721 15.4471 20.6252 15 20.625Z" fill="#F5F5F5"/>
</svg>
